<svg xmlns="http://www.w3.org/2000/svg" viewBox="0 0 400 300">
  <defs>
    <linearGradient id="sky3" x1="0" y1="0" x2="0" y2="1">
      <stop offset="0" stop-color="#f1e9e4"/>
      <stop offset="1" stop-color="#f7f4ee"/>
    </linearGradient>
  </defs>
  <rect width="400" height="300" fill="url(#sky3)"/>
  <rect x="0" y="240" width="400" height="60" fill="#dfe6d8"/>
  <!-- three attached units -->
  <rect x="60" y="120" width="90" height="120" fill="#a15c4a"/>
  <path d="M55 120 L105 75 L155 120 Z" fill="#182430"/>
  <rect x="150" y="100" width="90" height="140" fill="#b56b54"/>
  <path d="M145 100 L195 60 L245 100 Z" fill="#22303d"/>
  <rect x="240" y="120" width="90" height="120" fill="#a15c4a"/>
  <path d="M235 120 L285 75 L335 120 Z" fill="#182430"/>
  <g fill="#f7f4ee" stroke="#182430" stroke-width="2">
    <rect x="90" y="150" width="22" height="22"/>
    <rect x="178" y="130" width="24" height="24"/>
    <rect x="270" y="150" width="22" height="22"/>
  </g>
  <rect x="95" y="200" width="20" height="40" fill="#22303d"/>
  <rect x="180" y="185" width="20" height="55" fill="#182430"/>
  <rect x="275" y="200" width="20" height="40" fill="#22303d"/>
</svg>
